<svg xmlns="http://www.w3.org/2000/svg" width="400" height="300" viewBox="0 0 400 300" fill="none">
  <rect width="400" height="300" rx="10" fill="#F0F9FF" />
  
  <!-- Diploma Certificate -->
  <rect x="100" y="70" width="200" height="150" rx="8" fill="#FFFFFF" stroke="#0EA5E9" stroke-width="2" />
  
  <!-- Certificate Border -->
  <rect x="110" y="80" width="180" height="130" rx="4" stroke="#0284C7" stroke-width="1" stroke-dasharray="2 2" fill="none" />
  
  <!-- Certificate Elements -->
  <path d="M130 110H270" stroke="#BAE6FD" stroke-width="3" />
  <path d="M130 130H270" stroke="#BAE6FD" stroke-width="1" />
  <path d="M130 145H270" stroke="#BAE6FD" stroke-width="1" />
  <path d="M130 160H270" stroke="#BAE6FD" stroke-width="1" />
  <path d="M130 175H230" stroke="#BAE6FD" stroke-width="1" />
  
  <!-- Seal -->
  <circle cx="240" cy="175" r="15" fill="#0EA5E9" opacity="0.8" />
  <circle cx="240" cy="175" r="12" stroke="#FFFFFF" stroke-width="1" fill="none" />
  <path d="M235 175H245" stroke="#FFFFFF" stroke-width="1" />
  <path d="M240 170V180" stroke="#FFFFFF" stroke-width="1" />
  
  <!-- Upload indicator -->
  <circle cx="330" cy="80" r="30" fill="#22C55E" opacity="0.9" />
  <path d="M330 95V65" stroke="#FFFFFF" stroke-width="4" stroke-linecap="round" />
  <path d="M315 80L330 65L345 80" stroke="#FFFFFF" stroke-width="4" stroke-linecap="round" stroke-linejoin="round" />
  
  <!-- Doctor Hat -->
  <rect x="150" y="50" width="100" height="20" rx="5" fill="#0284C7" />
  <rect x="170" y="40" width="60" height="10" rx="2" fill="#0284C7" />
  <circle cx="200" cy="40" r="10" fill="#0284C7" />
  <rect x="195" y="30" width="10" height="10" fill="#0284C7" />
  <circle cx="200" cy="25" r="5" fill="#0284C7" />
  
  <!-- Ribbon -->
  <path d="M180 70S170 90 180 110" stroke="#0EA5E9" stroke-width="3" fill="none" />
  <path d="M220 70S230 90 220 110" stroke="#0EA5E9" stroke-width="3" fill="none" />
</svg> 